<svg width="18" height="12" viewBox="0 0 18 12" fill="none" xmlns="http://www.w3.org/2000/svg">
<path fill-rule="evenodd" clip-rule="evenodd" d="M7.2 0C5.88163 0 4.8 1.08163 4.8 2.4C4.8 3.02036 5.03952 3.58852 5.43047 4.01602L2.99531 7.27617C2.80476 7.22697 2.60521 7.2 2.4 7.2C1.08163 7.2 0 8.28163 0 9.6C0 10.9184 1.08163 12 2.4 12C3.71837 12 4.8 10.9184 4.8 9.6C4.8 8.92006 4.51184 8.30372 4.05234 7.86563L6.43711 4.67344C6.67713 4.75474 6.9337 4.8 7.2 4.8C7.38476 4.8 7.56476 4.77804 7.73789 4.73789L9.47461 7.60313C8.82876 8.03475 8.4 8.77057 8.4 9.6C8.4 10.9184 9.48163 12 10.8 12C12.1184 12 13.2 10.9184 13.2 9.6C13.2 8.92006 12.9118 8.30372 12.4523 7.86563L14.8371 4.67344C15.0771 4.75474 15.3337 4.8 15.6 4.8C16.9184 4.8 18 3.71837 18 2.4C18 1.08163 16.9184 0 15.6 0C14.2816 0 13.2 1.08163 13.2 2.4C13.2 3.02036 13.4395 3.58852 13.8305 4.01602L11.3953 7.27617C11.2048 7.22697 11.0052 7.2 10.8 7.2C10.7448 7.2 10.6903 7.20299 10.6359 7.20701L8.80313 4.18123C9.29161 3.74089 9.6 3.10424 9.6 2.4C9.6 1.08163 8.51837 0 7.2 0ZM7.2 1.2C7.86985 1.2 8.4 1.73015 8.4 2.4C8.4 3.06985 7.86985 3.6 7.2 3.6C6.53015 3.6 6 3.06985 6 2.4C6 1.73015 6.53015 1.2 7.2 1.2ZM15.6 1.2C16.2698 1.2 16.8 1.73015 16.8 2.4C16.8 3.06985 16.2698 3.6 15.6 3.6C14.9302 3.6 14.4 3.06985 14.4 2.4C14.4 1.73015 14.9302 1.2 15.6 1.2ZM2.4 8.4C3.06985 8.4 3.6 8.93015 3.6 9.6C3.6 10.2699 3.06985 10.8 2.4 10.8C1.73015 10.8 1.2 10.2699 1.2 9.6C1.2 8.93015 1.73015 8.4 2.4 8.4ZM10.8 8.4C11.4698 8.4 12 8.93015 12 9.6C12 10.2699 11.4698 10.8 10.8 10.8C10.1302 10.8 9.6 10.2699 9.6 9.6C9.6 8.93015 10.1302 8.4 10.8 8.4Z" fill="#F2D701"/>
</svg>
