<svg width="22" height="22" viewBox="0 0 22 22" fill="none" xmlns="http://www.w3.org/2000/svg">
<path d="M11.0002 17.6828C13.342 17.6828 14.952 17.3786 14.9766 17.0863C15.0785 15.8651 13.4938 15.2274 12.8547 14.988C12.512 14.8598 12.0131 14.4857 12.0131 14.2531C12.0131 14.0989 12.0131 13.9063 12.0131 13.6423C12.2112 13.4224 12.3609 12.9749 12.4506 12.4685C12.6593 12.3939 12.7783 12.2742 12.9273 11.7531C13.0859 11.1975 12.689 11.216 12.689 11.216C13.0098 10.154 12.5877 9.15591 11.8801 9.22887C11.392 8.37564 9.75754 9.42395 9.24565 9.35094C9.24565 9.6439 9.36742 9.86313 9.36742 9.86313C9.1894 10.2018 9.25794 10.8756 9.30774 11.216C9.27908 11.216 8.92033 11.2194 9.07279 11.7531C9.22112 12.2742 9.34048 12.3939 9.54922 12.4685C9.63856 12.975 9.7886 13.4224 9.98742 13.6423C9.98742 13.9063 9.98742 14.0989 9.98742 14.2531C9.98742 14.4857 9.45676 14.8782 9.14476 14.988C8.50225 15.2141 6.9213 15.8651 7.02326 17.0863C7.0478 17.3785 8.65771 17.6828 11.0002 17.6828Z" fill="#04254E"/>
<path d="M17.4014 2.44434H14.143V3.14275C14.143 4.49046 13.0462 5.5872 11.6985 5.5872H10.3017C8.95394 5.5872 7.85725 4.49046 7.85725 3.14275V2.44434H4.59875C3.50546 2.44434 2.61914 3.33065 2.61914 4.42395V20.0203C2.61914 21.1136 3.50546 21.9999 4.59875 21.9999H17.4014C18.4947 21.9999 19.381 21.1136 19.381 20.0203V4.42395C19.3811 3.33065 18.4948 2.44434 17.4014 2.44434ZM17.2858 19.9046H4.71438V6.4602H17.2858V19.9046Z" fill="#04254E"/>
<path d="M10.3017 4.8889H11.6985C12.6612 4.8889 13.4446 4.10558 13.4446 3.14286V1.74604C13.4446 0.78332 12.6612 0 11.6985 0H10.3017C9.33894 0 8.55566 0.78332 8.55566 1.74604V3.14286C8.55566 4.10554 9.33898 4.8889 10.3017 4.8889ZM9.95249 1.74604C9.95249 1.55302 10.1086 1.39683 10.3017 1.39683H11.6985C11.8915 1.39683 12.0477 1.55302 12.0477 1.74604V2.44445C12.0477 2.63746 11.8915 2.79366 11.6985 2.79366H10.3017C10.1086 2.79366 9.95249 2.63746 9.95249 2.44445V1.74604Z" fill="#04254E"/>
</svg>
