<svg width="15" height="16" viewBox="0 0 15 16" fill="none" xmlns="http://www.w3.org/2000/svg">
<path d="M7.52456 3.05958C7.93431 3.04549 8.25516 2.70183 8.241 2.29201C8.22695 1.88219 7.88333 1.56139 7.47348 1.57549L7.52456 3.05958ZM3.00297 7.23871L2.26084 7.26148C2.26111 7.27019 2.26153 7.2789 2.2621 7.28761L3.00297 7.23871ZM1.73563 10.6215L2.22033 11.1839C2.23361 11.1725 2.24648 11.1606 2.25891 11.1482L1.73563 10.6215ZM1.30128 10.9808L1.73742 11.5817C1.74968 11.5728 1.76166 11.5635 1.77335 11.5539L1.30128 10.9808ZM5.56854 13.3647C5.97861 13.3647 6.31105 13.0323 6.31105 12.6222C6.31105 12.2122 5.97861 11.8797 5.56854 11.8797V13.3647ZM7.52456 1.57549C7.11471 1.56139 6.77109 1.88219 6.75693 2.29201C6.74287 2.70183 7.06363 3.04549 7.47348 3.05958L7.52456 1.57549ZM11.995 7.23871L12.7359 7.28752C12.7365 7.2788 12.7369 7.27019 12.7372 7.26148L11.995 7.23871ZM13.2624 10.6205L12.7391 11.1472C12.7515 11.1595 12.7644 11.1715 12.7777 11.1829L13.2624 10.6205ZM13.6968 10.9798L13.2246 11.5529C13.2361 11.5623 13.2478 11.5714 13.2598 11.5802L13.6968 10.9798ZM9.42947 11.8797C9.01942 11.8797 8.68699 12.2122 8.68699 12.6222C8.68699 13.0323 9.01942 13.3647 9.42947 13.3647V11.8797ZM6.75653 2.31754C6.75653 2.72759 7.08897 3.06002 7.49902 3.06002C7.90907 3.06002 8.2415 2.72759 8.2415 2.31754H6.75653ZM8.2415 0.742483C8.2415 0.332424 7.90907 0 7.49902 0C7.08897 0 6.75653 0.332424 6.75653 0.742483H8.2415ZM5.56854 11.8797C5.15848 11.8797 4.82606 12.2122 4.82606 12.6222C4.82606 13.0323 5.15848 13.3647 5.56854 13.3647V11.8797ZM9.42947 13.3647C9.83952 13.3647 10.172 13.0323 10.172 12.6222C10.172 12.2122 9.83952 11.8797 9.42947 11.8797V13.3647ZM6.31105 12.6222C6.31105 12.2122 5.97861 11.8797 5.56854 11.8797C5.15848 11.8797 4.82606 12.2122 4.82606 12.6222H6.31105ZM10.172 12.6222C10.172 12.2122 9.83952 11.8797 9.42947 11.8797C9.01942 11.8797 8.68699 12.2122 8.68699 12.6222H10.172ZM7.47348 1.57549C4.48192 1.67839 2.16808 4.23909 2.26084 7.26148L3.7451 7.21594C3.67635 4.97575 5.3854 3.13316 7.52456 3.05958L7.47348 1.57549ZM2.2621 7.28761C2.33163 8.34036 1.94492 9.36696 1.21235 10.0947L2.25891 11.1482C3.30073 10.1132 3.84126 8.66487 3.74384 7.18981L2.2621 7.28761ZM1.25093 10.0591C1.09581 10.1927 0.965427 10.2956 0.829197 10.4077L1.77335 11.5539C1.88228 11.4641 2.04919 11.3314 2.22033 11.1839L1.25093 10.0591ZM0.865133 10.3799C0.648071 10.5375 0.450828 10.7626 0.303796 11.0003C0.158587 11.2349 0.0196534 11.5509 0.00185366 11.9003C-0.0176192 12.2825 0.114047 12.7076 0.505197 13.0067C0.855134 13.2744 1.31626 13.3647 1.80416 13.3647V11.8797C1.64246 11.8797 1.53551 11.8639 1.46989 11.8472C1.40483 11.8306 1.39326 11.8165 1.40727 11.8272C1.42543 11.8411 1.45235 11.8706 1.4701 11.9131C1.48621 11.9518 1.48483 11.9771 1.4849 11.9759C1.48504 11.9731 1.48701 11.9523 1.50114 11.9133C1.51495 11.8752 1.53671 11.8299 1.56657 11.7817C1.59626 11.7337 1.63003 11.6891 1.66348 11.6518C1.69788 11.6134 1.72462 11.5909 1.73742 11.5817L0.865133 10.3799ZM1.80416 13.3647H5.56854V11.8797H1.80416V13.3647ZM7.47348 3.05958C9.61262 3.13316 11.3216 4.97575 11.2529 7.21594L12.7372 7.26148C12.8299 4.23909 10.5161 1.67839 7.52456 1.57549L7.47348 3.05958ZM11.2542 7.1899C11.1571 8.66467 11.6976 10.1125 12.7391 11.1472L13.7857 10.0937C13.0533 9.36617 12.6666 8.33996 12.7359 7.28752L11.2542 7.1899ZM12.7777 11.1829C12.9488 11.3304 13.1158 11.4631 13.2246 11.5529L14.1688 10.4067C14.0326 10.2946 13.9022 10.1917 13.7471 10.0581L12.7777 11.1829ZM13.2598 11.5802C13.2731 11.5898 13.3002 11.6126 13.3348 11.6513C13.3686 11.689 13.4026 11.7338 13.4326 11.7821C13.4627 11.8306 13.4847 11.8761 13.4987 11.9144C13.5129 11.9536 13.515 11.9745 13.5151 11.9772C13.5152 11.9784 13.5137 11.9528 13.53 11.9138C13.5478 11.8708 13.575 11.8411 13.5933 11.8271C13.6074 11.8163 13.5958 11.8304 13.5304 11.8471C13.4645 11.8639 13.3571 11.8797 13.1948 11.8797V13.3647C13.6832 13.3647 14.1449 13.2745 14.4951 13.0068C14.887 12.7072 15.0183 12.2814 14.998 11.8988C14.9795 11.5492 14.8398 11.2335 14.6944 10.999C14.5471 10.7616 14.3499 10.5369 14.1336 10.3795L13.2598 11.5802ZM13.1948 11.8797H9.42947V13.3647H13.1948V11.8797ZM8.2415 2.31754V0.742483H6.75653V2.31754H8.2415ZM5.56854 13.3647H9.42947V11.8797H5.56854V13.3647ZM4.82606 12.6222C4.82606 14.108 6.00514 15.3446 7.49902 15.3446V13.8597C6.86048 13.8597 6.31105 13.3235 6.31105 12.6222H4.82606ZM7.49902 15.3446C8.99279 15.3446 10.172 14.108 10.172 12.6222H8.68699C8.68699 13.3235 8.13745 13.8597 7.49902 13.8597V15.3446Z" fill="#F2D701"/>
</svg>
