<svg width="20" height="20" viewBox="0 0 20 20" fill="none" xmlns="http://www.w3.org/2000/svg">
<path d="M18.0572 16.1162L17.2167 16.9567L17.7241 17.464H5.10627L5.61358 16.9567L4.77311 16.1162L2.83105 18.0583L4.77311 20.0004L5.61358 19.1599L5.10627 18.6526H17.7241L17.2167 19.1599L18.0572 20.0004L19.9993 18.0583L18.0572 16.1162Z" fill="#F2D701"/>
<path d="M2.53635 14.893V2.27518L3.04369 2.78252L3.88416 1.94206L1.94206 0L0 1.94206L0.840464 2.78252L1.34776 2.27518V14.893L0.840464 14.3857L0 15.2262L1.94206 17.1682L3.88416 15.2262L3.04369 14.3857L2.53635 14.893Z" fill="#F2D701"/>
<path d="M14.9031 0.00878906H4.17236V15.8268H19.9904V5.77297H14.9031V0.00878906ZM5.36095 1.19738H8.94343V3.14521H5.36095V1.19738ZM6.96235 14.6382H5.36095V9.89334H6.96235V14.6382ZM13.7145 14.6382H8.15093V9.89334H13.7145V14.6382ZM13.7145 6.3673V6.96156V8.70475H5.36095V4.3338H13.7145V6.3673ZM13.7145 3.14521H10.1321V1.19738H13.7145V3.14521ZM18.8018 6.96156V14.6382H14.9031V6.96156H18.8018Z" fill="#F2D701"/>
</svg>
