<svg width="18" height="17" viewBox="0 0 18 17" fill="none" xmlns="http://www.w3.org/2000/svg">
<path d="M8.55856 16.747C12.9566 16.747 16.5219 13.1817 16.5219 8.78366C16.5219 4.38562 12.9566 0.820312 8.55856 0.820312C4.16053 0.820312 0.595215 4.38562 0.595215 8.78366C0.595215 13.1817 4.16053 16.747 8.55856 16.747Z" fill="#F2D701" fill-opacity="0.1"/>
<path fill-rule="evenodd" clip-rule="evenodd" d="M14.9272 4.90852L14.8231 4.79874C14.607 4.57121 14.2464 4.56211 14.0188 4.77826C13.7913 4.99441 13.7822 5.35504 13.9984 5.58256L15.6326 7.30265C15.7793 7.45623 15.9989 7.51595 16.2031 7.4568C16.4073 7.39821 16.5614 7.23041 16.603 7.02222L17.0808 4.6298C17.1422 4.32207 16.942 4.02174 16.6342 3.96031C16.3265 3.89888 16.0262 4.0991 15.9647 4.40683L15.9608 4.4273C15.2384 3.09969 14.1536 1.94899 12.7504 1.139C8.68793 -1.20678 3.48501 0.187379 1.13923 4.24983C-1.20655 8.31286 0.187606 13.5158 4.25063 15.861C8.31309 18.2068 13.516 16.8126 15.8618 12.7502C16.0188 12.4783 15.9255 12.1301 15.6536 11.9732C15.3817 11.8162 15.0336 11.9094 14.8766 12.1813C12.8448 15.7 8.33811 16.9076 4.81944 14.8758C1.3002 12.844 0.0926107 8.33789 2.12441 4.81865C4.1562 1.29998 8.66233 0.0923878 12.1816 2.12418C13.3744 2.81245 14.3015 3.78569 14.9272 4.90852ZM6.85294 7.93119H6.28413C5.65559 7.93119 5.14651 8.44027 5.14651 9.06881V10.2064C5.14651 10.835 5.65559 11.3441 6.28413 11.3441H7.42176C7.73574 11.3441 7.99057 11.0892 7.99057 10.7752C7.99057 10.4613 7.73574 10.2064 7.42176 10.2064H6.28413V9.06881H6.85294C7.48148 9.06881 7.99057 8.55972 7.99057 7.93119V6.79356C7.99057 6.16502 7.48148 5.65594 6.85294 5.65594H5.71532C5.40133 5.65594 5.14651 5.91077 5.14651 6.22475C5.14651 6.53873 5.40133 6.79356 5.71532 6.79356H6.85294V7.93119ZM11.9723 6.22475C11.9723 5.47107 10.8346 5.47107 10.8346 6.22475V7.93119H9.697C9.697 7.25714 9.697 6.22475 9.697 6.22475C9.697 5.91077 9.44218 5.65594 9.12819 5.65594C8.81421 5.65594 8.55938 5.91077 8.55938 6.22475V7.93119C8.55938 8.55972 9.06847 9.06881 9.697 9.06881H10.8346V10.7752C10.8346 11.0892 11.0895 11.3441 11.4034 11.3441C11.7174 11.3441 11.9723 11.0892 11.9723 10.7752V6.22475Z" fill="#F2D701"/>
</svg>
